<mxfile host="app.diagrams.net" modified="2023-11-23T09:05:20.256Z" agent="Mozilla/5.0 (Windows NT 10.0; Win64; x64) AppleWebKit/537.36 (KHTML, like Gecko) Chrome/119.0.0.0 Safari/537.36" etag="hJAl5tOVLsnygfQIXQKW" version="22.1.3" type="device">
  <diagram name="Sivu-1" id="Ao7b9hQnDnArzKQrlLZh">
    <mxGraphModel dx="2391" dy="1131" grid="1" gridSize="10" guides="1" tooltips="1" connect="1" arrows="1" fold="1" page="1" pageScale="1" pageWidth="3300" pageHeight="4681" math="0" shadow="0">
      <root>
        <mxCell id="0" />
        <mxCell id="1" parent="0" />
        <mxCell id="njptMxDmk33BvM4OAgdk-1" value="" style="ellipse;whiteSpace=wrap;html=1;" vertex="1" parent="1">
          <mxGeometry x="1490" y="70" width="120" height="120" as="geometry" />
        </mxCell>
        <mxCell id="njptMxDmk33BvM4OAgdk-2" value="START" style="text;html=1;strokeColor=none;fillColor=none;align=center;verticalAlign=middle;whiteSpace=wrap;rounded=0;" vertex="1" parent="1">
          <mxGeometry x="1505" y="105" width="90" height="50" as="geometry" />
        </mxCell>
        <mxCell id="njptMxDmk33BvM4OAgdk-3" value="" style="endArrow=classic;html=1;rounded=0;" edge="1" parent="1">
          <mxGeometry width="50" height="50" relative="1" as="geometry">
            <mxPoint x="1550" y="190" as="sourcePoint" />
            <mxPoint x="1550" y="290" as="targetPoint" />
          </mxGeometry>
        </mxCell>
        <mxCell id="njptMxDmk33BvM4OAgdk-4" value="&lt;div style=&quot;text-align: left;&quot;&gt;Choose Pokemon&lt;/div&gt;" style="rounded=0;whiteSpace=wrap;html=1;" vertex="1" parent="1">
          <mxGeometry x="1490" y="290" width="120" height="60" as="geometry" />
        </mxCell>
        <mxCell id="njptMxDmk33BvM4OAgdk-5" value="" style="endArrow=classic;html=1;rounded=0;" edge="1" parent="1">
          <mxGeometry width="50" height="50" relative="1" as="geometry">
            <mxPoint x="1550" y="350" as="sourcePoint" />
            <mxPoint x="1550" y="430" as="targetPoint" />
          </mxGeometry>
        </mxCell>
        <mxCell id="njptMxDmk33BvM4OAgdk-8" value="Battle" style="rhombus;whiteSpace=wrap;html=1;" vertex="1" parent="1">
          <mxGeometry x="1480" y="430" width="140" height="80" as="geometry" />
        </mxCell>
        <mxCell id="njptMxDmk33BvM4OAgdk-9" value="Fight" style="rounded=0;whiteSpace=wrap;html=1;" vertex="1" parent="1">
          <mxGeometry x="1250" y="440" width="120" height="60" as="geometry" />
        </mxCell>
        <mxCell id="njptMxDmk33BvM4OAgdk-11" value="Bag" style="rounded=0;whiteSpace=wrap;html=1;" vertex="1" parent="1">
          <mxGeometry x="1740" y="440" width="120" height="60" as="geometry" />
        </mxCell>
        <mxCell id="njptMxDmk33BvM4OAgdk-15" value="" style="endArrow=none;html=1;rounded=0;" edge="1" parent="1">
          <mxGeometry width="50" height="50" relative="1" as="geometry">
            <mxPoint x="1150" y="470" as="sourcePoint" />
            <mxPoint x="1250" y="470" as="targetPoint" />
          </mxGeometry>
        </mxCell>
        <mxCell id="njptMxDmk33BvM4OAgdk-19" value="" style="endArrow=none;html=1;rounded=0;" edge="1" parent="1">
          <mxGeometry width="50" height="50" relative="1" as="geometry">
            <mxPoint x="1150" y="580" as="sourcePoint" />
            <mxPoint x="1150" y="360" as="targetPoint" />
          </mxGeometry>
        </mxCell>
        <mxCell id="njptMxDmk33BvM4OAgdk-20" value="Attack 1" style="rounded=0;whiteSpace=wrap;html=1;" vertex="1" parent="1">
          <mxGeometry x="950" y="330" width="120" height="60" as="geometry" />
        </mxCell>
        <mxCell id="njptMxDmk33BvM4OAgdk-21" value="Attack 2" style="rounded=0;whiteSpace=wrap;html=1;" vertex="1" parent="1">
          <mxGeometry x="950" y="410" width="120" height="60" as="geometry" />
        </mxCell>
        <mxCell id="njptMxDmk33BvM4OAgdk-22" value="Attack 3" style="rounded=0;whiteSpace=wrap;html=1;" vertex="1" parent="1">
          <mxGeometry x="950" y="480" width="120" height="60" as="geometry" />
        </mxCell>
        <mxCell id="njptMxDmk33BvM4OAgdk-23" value="Attack 4" style="rounded=0;whiteSpace=wrap;html=1;" vertex="1" parent="1">
          <mxGeometry x="950" y="550" width="120" height="60" as="geometry" />
        </mxCell>
        <mxCell id="njptMxDmk33BvM4OAgdk-24" value="" style="endArrow=none;html=1;rounded=0;exitX=1;exitY=0.5;exitDx=0;exitDy=0;" edge="1" parent="1" source="njptMxDmk33BvM4OAgdk-20">
          <mxGeometry width="50" height="50" relative="1" as="geometry">
            <mxPoint x="1100" y="390" as="sourcePoint" />
            <mxPoint x="1150" y="360" as="targetPoint" />
          </mxGeometry>
        </mxCell>
        <mxCell id="njptMxDmk33BvM4OAgdk-25" value="" style="endArrow=none;html=1;rounded=0;exitX=1;exitY=0.5;exitDx=0;exitDy=0;" edge="1" parent="1" source="njptMxDmk33BvM4OAgdk-23">
          <mxGeometry width="50" height="50" relative="1" as="geometry">
            <mxPoint x="1080" y="580" as="sourcePoint" />
            <mxPoint x="1150" y="579.5" as="targetPoint" />
          </mxGeometry>
        </mxCell>
        <mxCell id="njptMxDmk33BvM4OAgdk-26" value="" style="endArrow=none;html=1;rounded=0;" edge="1" parent="1">
          <mxGeometry width="50" height="50" relative="1" as="geometry">
            <mxPoint x="1070" y="510" as="sourcePoint" />
            <mxPoint x="1150" y="510" as="targetPoint" />
          </mxGeometry>
        </mxCell>
        <mxCell id="njptMxDmk33BvM4OAgdk-28" value="" style="endArrow=none;html=1;rounded=0;" edge="1" parent="1">
          <mxGeometry width="50" height="50" relative="1" as="geometry">
            <mxPoint x="1070" y="440" as="sourcePoint" />
            <mxPoint x="1150" y="440" as="targetPoint" />
          </mxGeometry>
        </mxCell>
        <mxCell id="njptMxDmk33BvM4OAgdk-30" value="Potion" style="rounded=0;whiteSpace=wrap;html=1;" vertex="1" parent="1">
          <mxGeometry x="2010" y="370" width="120" height="60" as="geometry" />
        </mxCell>
        <mxCell id="njptMxDmk33BvM4OAgdk-31" value="Super Potion" style="rounded=0;whiteSpace=wrap;html=1;" vertex="1" parent="1">
          <mxGeometry x="2010" y="440" width="120" height="60" as="geometry" />
        </mxCell>
        <mxCell id="njptMxDmk33BvM4OAgdk-32" value="Hyper Potion" style="rounded=0;whiteSpace=wrap;html=1;" vertex="1" parent="1">
          <mxGeometry x="2010" y="510" width="120" height="60" as="geometry" />
        </mxCell>
        <mxCell id="njptMxDmk33BvM4OAgdk-33" value="" style="endArrow=none;html=1;rounded=0;" edge="1" parent="1">
          <mxGeometry width="50" height="50" relative="1" as="geometry">
            <mxPoint x="1860" y="470" as="sourcePoint" />
            <mxPoint x="1960" y="470" as="targetPoint" />
          </mxGeometry>
        </mxCell>
        <mxCell id="njptMxDmk33BvM4OAgdk-34" value="" style="endArrow=none;html=1;rounded=0;" edge="1" parent="1">
          <mxGeometry width="50" height="50" relative="1" as="geometry">
            <mxPoint x="1960" y="540" as="sourcePoint" />
            <mxPoint x="1960" y="400" as="targetPoint" />
          </mxGeometry>
        </mxCell>
        <mxCell id="njptMxDmk33BvM4OAgdk-35" value="" style="endArrow=none;html=1;rounded=0;" edge="1" parent="1">
          <mxGeometry width="50" height="50" relative="1" as="geometry">
            <mxPoint x="1960" y="540" as="sourcePoint" />
            <mxPoint x="2010" y="539.5" as="targetPoint" />
          </mxGeometry>
        </mxCell>
        <mxCell id="njptMxDmk33BvM4OAgdk-36" value="" style="endArrow=none;html=1;rounded=0;" edge="1" parent="1" target="njptMxDmk33BvM4OAgdk-30">
          <mxGeometry width="50" height="50" relative="1" as="geometry">
            <mxPoint x="1960" y="400" as="sourcePoint" />
            <mxPoint x="2010" y="340" as="targetPoint" />
          </mxGeometry>
        </mxCell>
        <mxCell id="njptMxDmk33BvM4OAgdk-37" value="" style="endArrow=none;html=1;rounded=0;" edge="1" parent="1">
          <mxGeometry width="50" height="50" relative="1" as="geometry">
            <mxPoint x="1960" y="469" as="sourcePoint" />
            <mxPoint x="2010" y="469" as="targetPoint" />
          </mxGeometry>
        </mxCell>
        <mxCell id="njptMxDmk33BvM4OAgdk-39" value="" style="endArrow=classic;startArrow=classic;html=1;rounded=0;entryX=0;entryY=0.5;entryDx=0;entryDy=0;" edge="1" parent="1" target="njptMxDmk33BvM4OAgdk-11">
          <mxGeometry width="50" height="50" relative="1" as="geometry">
            <mxPoint x="1620" y="470" as="sourcePoint" />
            <mxPoint x="1730" y="470" as="targetPoint" />
          </mxGeometry>
        </mxCell>
        <mxCell id="njptMxDmk33BvM4OAgdk-40" value="" style="endArrow=classic;startArrow=classic;html=1;rounded=0;entryX=0;entryY=0.5;entryDx=0;entryDy=0;" edge="1" parent="1" target="njptMxDmk33BvM4OAgdk-8">
          <mxGeometry width="50" height="50" relative="1" as="geometry">
            <mxPoint x="1370" y="470" as="sourcePoint" />
            <mxPoint x="1420" y="420" as="targetPoint" />
          </mxGeometry>
        </mxCell>
        <mxCell id="njptMxDmk33BvM4OAgdk-41" value="" style="endArrow=none;html=1;rounded=0;" edge="1" parent="1">
          <mxGeometry width="50" height="50" relative="1" as="geometry">
            <mxPoint x="900" y="360" as="sourcePoint" />
            <mxPoint x="950" y="360" as="targetPoint" />
          </mxGeometry>
        </mxCell>
        <mxCell id="njptMxDmk33BvM4OAgdk-42" value="" style="endArrow=none;html=1;rounded=0;" edge="1" parent="1">
          <mxGeometry width="50" height="50" relative="1" as="geometry">
            <mxPoint x="900" y="440" as="sourcePoint" />
            <mxPoint x="950" y="440" as="targetPoint" />
          </mxGeometry>
        </mxCell>
        <mxCell id="njptMxDmk33BvM4OAgdk-43" value="" style="endArrow=none;html=1;rounded=0;" edge="1" parent="1">
          <mxGeometry width="50" height="50" relative="1" as="geometry">
            <mxPoint x="900" y="510" as="sourcePoint" />
            <mxPoint x="950" y="510" as="targetPoint" />
          </mxGeometry>
        </mxCell>
        <mxCell id="njptMxDmk33BvM4OAgdk-44" value="" style="endArrow=none;html=1;rounded=0;" edge="1" parent="1">
          <mxGeometry width="50" height="50" relative="1" as="geometry">
            <mxPoint x="900" y="580" as="sourcePoint" />
            <mxPoint x="950" y="580" as="targetPoint" />
          </mxGeometry>
        </mxCell>
        <mxCell id="njptMxDmk33BvM4OAgdk-45" value="" style="endArrow=none;html=1;rounded=0;" edge="1" parent="1">
          <mxGeometry width="50" height="50" relative="1" as="geometry">
            <mxPoint x="900" y="580" as="sourcePoint" />
            <mxPoint x="900" y="360" as="targetPoint" />
          </mxGeometry>
        </mxCell>
        <mxCell id="njptMxDmk33BvM4OAgdk-46" value="" style="endArrow=none;html=1;rounded=0;" edge="1" parent="1">
          <mxGeometry width="50" height="50" relative="1" as="geometry">
            <mxPoint x="800" y="470" as="sourcePoint" />
            <mxPoint x="900" y="470" as="targetPoint" />
          </mxGeometry>
        </mxCell>
        <mxCell id="njptMxDmk33BvM4OAgdk-47" value="" style="endArrow=none;html=1;rounded=0;" edge="1" parent="1">
          <mxGeometry width="50" height="50" relative="1" as="geometry">
            <mxPoint x="800" y="680" as="sourcePoint" />
            <mxPoint x="800" y="470" as="targetPoint" />
          </mxGeometry>
        </mxCell>
        <mxCell id="njptMxDmk33BvM4OAgdk-48" value="Pokemon dies" style="rhombus;whiteSpace=wrap;html=1;" vertex="1" parent="1">
          <mxGeometry x="730" y="840" width="140" height="80" as="geometry" />
        </mxCell>
        <mxCell id="njptMxDmk33BvM4OAgdk-49" value="Deal damage" style="rounded=0;whiteSpace=wrap;html=1;" vertex="1" parent="1">
          <mxGeometry x="740" y="680" width="120" height="60" as="geometry" />
        </mxCell>
        <mxCell id="njptMxDmk33BvM4OAgdk-52" value="" style="endArrow=classic;html=1;rounded=0;" edge="1" parent="1" target="njptMxDmk33BvM4OAgdk-48">
          <mxGeometry width="50" height="50" relative="1" as="geometry">
            <mxPoint x="800" y="740" as="sourcePoint" />
            <mxPoint x="850" y="690" as="targetPoint" />
          </mxGeometry>
        </mxCell>
        <mxCell id="njptMxDmk33BvM4OAgdk-55" value="Choose new pokemon" style="rounded=0;whiteSpace=wrap;html=1;" vertex="1" parent="1">
          <mxGeometry x="950" y="1010" width="120" height="60" as="geometry" />
        </mxCell>
        <mxCell id="njptMxDmk33BvM4OAgdk-56" value="" style="endArrow=classic;html=1;rounded=0;entryX=0;entryY=0.5;entryDx=0;entryDy=0;" edge="1" parent="1" target="njptMxDmk33BvM4OAgdk-62">
          <mxGeometry width="50" height="50" relative="1" as="geometry">
            <mxPoint x="870" y="880" as="sourcePoint" />
            <mxPoint x="1490" y="890" as="targetPoint" />
          </mxGeometry>
        </mxCell>
        <mxCell id="njptMxDmk33BvM4OAgdk-58" value="" style="endArrow=classic;html=1;rounded=0;" edge="1" parent="1" target="njptMxDmk33BvM4OAgdk-68">
          <mxGeometry width="50" height="50" relative="1" as="geometry">
            <mxPoint x="800" y="920" as="sourcePoint" />
            <mxPoint x="800" y="1010" as="targetPoint" />
          </mxGeometry>
        </mxCell>
        <mxCell id="njptMxDmk33BvM4OAgdk-59" value="Yes" style="text;html=1;strokeColor=none;fillColor=none;align=center;verticalAlign=middle;whiteSpace=wrap;rounded=0;" vertex="1" parent="1">
          <mxGeometry x="780" y="950" width="60" height="30" as="geometry" />
        </mxCell>
        <mxCell id="njptMxDmk33BvM4OAgdk-60" value="No" style="text;html=1;strokeColor=none;fillColor=none;align=center;verticalAlign=middle;whiteSpace=wrap;rounded=0;" vertex="1" parent="1">
          <mxGeometry x="900" y="850" width="60" height="30" as="geometry" />
        </mxCell>
        <mxCell id="njptMxDmk33BvM4OAgdk-62" value="Enemy turn" style="rounded=0;whiteSpace=wrap;html=1;" vertex="1" parent="1">
          <mxGeometry x="1490" y="850" width="120" height="60" as="geometry" />
        </mxCell>
        <mxCell id="njptMxDmk33BvM4OAgdk-63" value="" style="endArrow=classic;html=1;rounded=0;exitX=0.5;exitY=0;exitDx=0;exitDy=0;" edge="1" parent="1" source="njptMxDmk33BvM4OAgdk-62">
          <mxGeometry width="50" height="50" relative="1" as="geometry">
            <mxPoint x="1545" y="860" as="sourcePoint" />
            <mxPoint x="1550" y="790" as="targetPoint" />
          </mxGeometry>
        </mxCell>
        <mxCell id="njptMxDmk33BvM4OAgdk-66" value="" style="endArrow=classic;html=1;rounded=0;" edge="1" parent="1">
          <mxGeometry width="50" height="50" relative="1" as="geometry">
            <mxPoint x="1070" y="1040" as="sourcePoint" />
            <mxPoint x="1550" y="1040" as="targetPoint" />
          </mxGeometry>
        </mxCell>
        <mxCell id="njptMxDmk33BvM4OAgdk-67" value="" style="endArrow=classic;html=1;rounded=0;" edge="1" parent="1">
          <mxGeometry width="50" height="50" relative="1" as="geometry">
            <mxPoint x="1550" y="1040" as="sourcePoint" />
            <mxPoint x="1549.5" y="910" as="targetPoint" />
            <Array as="points">
              <mxPoint x="1549.5" y="960" />
            </Array>
          </mxGeometry>
        </mxCell>
        <mxCell id="njptMxDmk33BvM4OAgdk-68" value="Pokemon available" style="rhombus;whiteSpace=wrap;html=1;" vertex="1" parent="1">
          <mxGeometry x="750" y="1000" width="100" height="80" as="geometry" />
        </mxCell>
        <mxCell id="njptMxDmk33BvM4OAgdk-69" value="" style="endArrow=classic;html=1;rounded=0;entryX=0;entryY=0.5;entryDx=0;entryDy=0;" edge="1" parent="1" target="njptMxDmk33BvM4OAgdk-55">
          <mxGeometry width="50" height="50" relative="1" as="geometry">
            <mxPoint x="850" y="1040" as="sourcePoint" />
            <mxPoint x="900" y="990" as="targetPoint" />
          </mxGeometry>
        </mxCell>
        <mxCell id="njptMxDmk33BvM4OAgdk-70" value="Yes" style="text;html=1;strokeColor=none;fillColor=none;align=center;verticalAlign=middle;whiteSpace=wrap;rounded=0;" vertex="1" parent="1">
          <mxGeometry x="870" y="1010" width="60" height="30" as="geometry" />
        </mxCell>
        <mxCell id="njptMxDmk33BvM4OAgdk-71" value="" style="endArrow=classic;html=1;rounded=0;" edge="1" parent="1">
          <mxGeometry width="50" height="50" relative="1" as="geometry">
            <mxPoint x="800" y="1080" as="sourcePoint" />
            <mxPoint x="800" y="1160" as="targetPoint" />
          </mxGeometry>
        </mxCell>
        <mxCell id="njptMxDmk33BvM4OAgdk-72" value="You win" style="rounded=0;whiteSpace=wrap;html=1;" vertex="1" parent="1">
          <mxGeometry x="740" y="1160" width="120" height="60" as="geometry" />
        </mxCell>
        <mxCell id="njptMxDmk33BvM4OAgdk-73" value="No" style="text;html=1;strokeColor=none;fillColor=none;align=center;verticalAlign=middle;whiteSpace=wrap;rounded=0;" vertex="1" parent="1">
          <mxGeometry x="790" y="1100" width="60" height="30" as="geometry" />
        </mxCell>
        <mxCell id="njptMxDmk33BvM4OAgdk-78" style="edgeStyle=orthogonalEdgeStyle;rounded=0;orthogonalLoop=1;jettySize=auto;html=1;entryX=0.5;entryY=1;entryDx=0;entryDy=0;" edge="1" parent="1" source="njptMxDmk33BvM4OAgdk-75" target="njptMxDmk33BvM4OAgdk-77">
          <mxGeometry relative="1" as="geometry" />
        </mxCell>
        <mxCell id="njptMxDmk33BvM4OAgdk-75" value="your Pokemon dies" style="rhombus;whiteSpace=wrap;html=1;" vertex="1" parent="1">
          <mxGeometry x="1500" y="710" width="100" height="80" as="geometry" />
        </mxCell>
        <mxCell id="njptMxDmk33BvM4OAgdk-79" style="edgeStyle=orthogonalEdgeStyle;rounded=0;orthogonalLoop=1;jettySize=auto;html=1;entryX=0.5;entryY=1;entryDx=0;entryDy=0;" edge="1" parent="1" source="njptMxDmk33BvM4OAgdk-77" target="njptMxDmk33BvM4OAgdk-8">
          <mxGeometry relative="1" as="geometry" />
        </mxCell>
        <mxCell id="njptMxDmk33BvM4OAgdk-77" value="pokemon available" style="rhombus;whiteSpace=wrap;html=1;" vertex="1" parent="1">
          <mxGeometry x="1502.5" y="560" width="95" height="80" as="geometry" />
        </mxCell>
        <mxCell id="njptMxDmk33BvM4OAgdk-81" value="yes" style="text;html=1;strokeColor=none;fillColor=none;align=center;verticalAlign=middle;whiteSpace=wrap;rounded=0;" vertex="1" parent="1">
          <mxGeometry x="1540" y="670" width="60" height="30" as="geometry" />
        </mxCell>
        <mxCell id="njptMxDmk33BvM4OAgdk-82" value="yes" style="text;html=1;strokeColor=none;fillColor=none;align=center;verticalAlign=middle;whiteSpace=wrap;rounded=0;" vertex="1" parent="1">
          <mxGeometry x="1535" y="520" width="60" height="30" as="geometry" />
        </mxCell>
        <mxCell id="njptMxDmk33BvM4OAgdk-83" value="" style="endArrow=classic;html=1;rounded=0;" edge="1" parent="1">
          <mxGeometry width="50" height="50" relative="1" as="geometry">
            <mxPoint x="1600" y="600" as="sourcePoint" />
            <mxPoint x="1720" y="600" as="targetPoint" />
          </mxGeometry>
        </mxCell>
        <mxCell id="njptMxDmk33BvM4OAgdk-84" value="You lose" style="rounded=0;whiteSpace=wrap;html=1;" vertex="1" parent="1">
          <mxGeometry x="1720" y="570" width="120" height="60" as="geometry" />
        </mxCell>
        <mxCell id="njptMxDmk33BvM4OAgdk-85" value="" style="endArrow=none;html=1;rounded=0;" edge="1" parent="1">
          <mxGeometry width="50" height="50" relative="1" as="geometry">
            <mxPoint x="1450" y="750" as="sourcePoint" />
            <mxPoint x="1500" y="750" as="targetPoint" />
          </mxGeometry>
        </mxCell>
        <mxCell id="njptMxDmk33BvM4OAgdk-86" value="" style="endArrow=classic;html=1;rounded=0;entryX=0.151;entryY=0.665;entryDx=0;entryDy=0;entryPerimeter=0;" edge="1" parent="1" target="njptMxDmk33BvM4OAgdk-8">
          <mxGeometry width="50" height="50" relative="1" as="geometry">
            <mxPoint x="1450" y="750" as="sourcePoint" />
            <mxPoint x="1500" y="700" as="targetPoint" />
            <Array as="points" />
          </mxGeometry>
        </mxCell>
        <mxCell id="njptMxDmk33BvM4OAgdk-87" value="no" style="text;html=1;strokeColor=none;fillColor=none;align=center;verticalAlign=middle;whiteSpace=wrap;rounded=0;" vertex="1" parent="1">
          <mxGeometry x="1450" y="720" width="60" height="30" as="geometry" />
        </mxCell>
      </root>
    </mxGraphModel>
  </diagram>
</mxfile>
